<?xml version="1.0" encoding="UTF-8" standalone="no"?>
<svg
   xmlns:dc="http://purl.org/dc/elements/1.1/"
   xmlns:cc="http://creativecommons.org/ns#"
   xmlns:rdf="http://www.w3.org/1999/02/22-rdf-syntax-ns#"
   xmlns:svg="http://www.w3.org/2000/svg"
   xmlns="http://www.w3.org/2000/svg"
   xmlns:sodipodi="http://sodipodi.sourceforge.net/DTD/sodipodi-0.dtd"
   xmlns:inkscape="http://www.inkscape.org/namespaces/inkscape"
   id="b692d93a-f629-4531-a33b-6f799117a7ad"
   data-name="Layer 1"
   viewBox="0 0 888 500"
   version="1.1"
   sodipodi:docname="cv.svg"
   inkscape:version="1.0 (4035a4fb49, 2020-05-01)">
  <metadata
     id="metadata1009">
    <rdf:RDF>
      <cc:Work
         rdf:about="">
        <dc:format>image/svg+xml</dc:format>
        <dc:type
           rdf:resource="http://purl.org/dc/dcmitype/StillImage" />
      </cc:Work>
    </rdf:RDF>
  </metadata>
  <defs
     id="defs1007" />
  <sodipodi:namedview
     inkscape:document-rotation="0"
     pagecolor="#ffffff"
     bordercolor="#666666"
     borderopacity="1"
     objecttolerance="10"
     gridtolerance="10"
     guidetolerance="10"
     inkscape:pageopacity="0"
     inkscape:pageshadow="2"
     inkscape:window-width="1920"
     inkscape:window-height="1000"
     id="namedview1005"
     showgrid="false"
     inkscape:zoom="0.97216116"
     inkscape:cx="505.34332"
     inkscape:cy="309.24352"
     inkscape:window-x="2869"
     inkscape:window-y="243"
     inkscape:window-maximized="1"
     inkscape:current-layer="b692d93a-f629-4531-a33b-6f799117a7ad" />
  <title
     id="title922">updated_resume</title>
  <rect
     x="100"
     width="400"
     height="480"
     fill="#e6e6e6"
     id="rect924"
     y="0.91183078"
     style="stroke-width:0.911684" />
  <rect
     style="stroke-width:0.986393"
     x="120"
     y="20.911831"
     width="360"
     height="100"
     fill="#ffffff"
     id="rect926" />
  <rect
     x="250"
     y="140.91183"
     width="230"
     height="320"
     fill="#fff"
     id="rect928"
     style="fill:#ffffff;stroke-width:0.942809" />
  <rect
     style="stroke-width:0.923934"
     x="300"
     y="55.911831"
     width="80"
     height="7"
     fill="#e6e6e6"
     id="rect930" />
  <rect
     style="stroke-width:1.00869"
     x="280"
     y="75.911827"
     width="120"
     height="7"
     fill="#e6e6e6"
     id="rect932" />
  <rect
     style="stroke-width:0.979979"
     x="324.31107"
     y="205.45354"
     width="90"
     height="7"
     fill="#e6e6e6"
     id="rect934" />
  <rect
     style="stroke-width:0.947791"
     x="324.31107"
     y="225.77771"
     width="130"
     height="7"
     fill="#548aa7"
     id="rect936" />
  <rect
     style="stroke-width:0.965748"
     x="325.81107"
     y="245.13373"
     width="110"
     height="7"
     fill="#e6e6e6"
     id="rect938" />
  <rect
     style="stroke-width:0.922842"
     x="324.31107"
     y="266.3718"
     width="58.637001"
     height="7"
     fill="#e6e6e6"
     id="rect940" />
  <rect
     style="stroke-width:0.99844"
     x="324.31107"
     y="287.11688"
     width="103.59158"
     height="7"
     fill="#548aa7"
     id="rect942" />
  <rect
     style="stroke-width:1.04899"
     x="281.73047"
     y="203.27574"
     width="12"
     height="12"
     fill="#e6e6e6"
     id="rect944" />
  <rect
     style="stroke-width:1.04899"
     x="281.73047"
     y="223.59985"
     width="12"
     height="12"
     fill="#548aa7"
     id="rect946" />
  <rect
     style="stroke-width:1.04899"
     x="281.73047"
     y="242.95596"
     width="12"
     height="12"
     fill="#e6e6e6"
     id="rect948" />
  <rect
     style="stroke-width:1.04899"
     x="281.73047"
     y="264.194"
     width="12"
     height="12"
     fill="#e6e6e6"
     id="rect950" />
  <rect
     style="stroke-width:1.04899"
     x="281.73047"
     y="284.93909"
     width="12"
     height="12"
     fill="#548aa7"
     id="rect952" />
  <rect
     style="stroke-width:0.979978"
     x="324.31107"
     y="307.99164"
     width="90"
     height="7"
     fill="#e6e6e6"
     id="rect954" />
  <rect
     style="stroke-width:0.947791"
     x="324.31107"
     y="328.31583"
     width="130"
     height="7"
     fill="#548aa7"
     id="rect956" />
  <rect
     style="stroke-width:0.965748"
     x="325.81107"
     y="347.67188"
     width="110"
     height="7"
     fill="#e6e6e6"
     id="rect958" />
  <rect
     style="stroke-width:0.971624"
     x="324.31107"
     y="368.90991"
     width="65"
     height="7"
     fill="#e6e6e6"
     id="rect960" />
  <rect
     style="stroke-width:0.980979"
     x="324.31107"
     y="389.65497"
     width="100"
     height="7"
     fill="#e6e6e6"
     id="rect962" />
  <rect
     style="stroke-width:1.04899"
     x="281.73047"
     y="305.81384"
     width="12"
     height="12"
     fill="#e6e6e6"
     id="rect964" />
  <rect
     style="stroke-width:1.04899"
     x="281.73047"
     y="326.138"
     width="12"
     height="12"
     fill="#548aa7"
     id="rect966" />
  <rect
     style="stroke-width:1.04899"
     x="281.73047"
     y="345.49408"
     width="12"
     height="12"
     fill="#e6e6e6"
     id="rect968" />
  <rect
     style="stroke-width:1.04899"
     x="281.73047"
     y="366.73215"
     width="12"
     height="12"
     fill="#e6e6e6"
     id="rect970" />
  <rect
     style="stroke-width:1.04899"
     x="281.73047"
     y="387.47723"
     width="12"
     height="12"
     fill="#e6e6e6"
     id="rect972" />
  <path
     style="stroke-width:1.00912"
     d="m 180.00001,40.911831 a 30,30 0 1 0 29.99999,30 30.088217,30.088216 0 0 0 -29.99999,-30 z m 0,9.00001 A 9.0000099,9.0000096 0 1 1 171,58.91185 a 9.0301825,9.0301824 0 0 1 9.00001,-9.000009 z m 0,43.32694 a 21.854801,21.854801 0 0 1 -18.00002,-9.60576 c 0.14424,-6.00001 12.00002,-9.3029 18.00002,-9.3029 5.99999,0 17.85577,3.30289 18.00001,9.3029 a 21.89122,21.891221 0 0 1 -18.00001,9.60576 z"
     fill="#548aa7"
     id="path974" />
  <rect
     style="fill:#0f5881;fill-opacity:1;stroke-width:0.935135"
     x="10"
     y="480"
     width="870"
     height="2"
     fill="#3f3d56"
     id="rect976" />
  <path
     style="fill:#fbc1be;fill-opacity:1;stroke-width:0.992947"
     d="m 662.41129,103.30372 c 0,0 10.15013,21.12692 16.91691,23.35083 l -19.17253,28.91051 -15.78915,-18.90303 c 0,0 1.1278,-13.34332 -2.25559,-18.90303 -3.38339,-5.55972 20.30036,-14.45528 20.30036,-14.45528 z"
     fill="#fbbebe"
     id="path978" />
  <ellipse
     style="fill:#fbc8be;fill-opacity:1;stroke-width:0.992947"
     ry="21.126917"
     rx="21.42812"
     cx="646.62213"
     cy="101.07986"
     fill="#fbbebe"
     id="circle980" />
  <polygon
     style="fill:#fbc1be;fill-opacity:1"
     transform="matrix(1,0,0,0.98594356,-54.51771,-63.167825)"
     points="684.223,327.864 678.544,309.88 671.817,319.97 677.456,335.759 "
     fill="#fbbebe"
     id="polygon982" />
  <path
     style="fill:#7b94a2;fill-opacity:1;stroke-width:0.992947"
     d="m 633.08856,244.5205 c 0,0 -6.76677,27.79859 -3.38338,41.14191 3.38339,13.34333 13.53355,104.52267 13.53355,104.52267 l 6.76677,72.2763 27.06711,2.22391 -3.38339,-84.50768 3.38339,-73.38825 19.17253,71.16436 v 86.73157 l 32.70608,1.11196 -3.38338,-112.30628 c 0,0 2.25559,-86.73156 -12.40576,-97.85101 -14.66135,-11.11943 -16.91694,-13.3433 -16.91694,-13.3433 z"
     fill="#548aa7"
     id="path984" />
  <path
     style="fill:#59160c;fill-opacity:1;stroke-width:0.992947"
     d="m 655.64448,461.34943 -2.25559,7.7836 -3.38339,10.0075 c 0,0 -10.15016,20.01498 6.76678,16.67916 16.91694,-3.33585 14.66135,-11.11949 14.66135,-11.11949 0,0 5.639,-3.33583 4.51118,-4.44778 -1.12782,-1.11194 -1.12779,-17.79108 -1.12779,-17.79108 z"
     fill="#59400c"
     id="path986" />
  <path
     style="fill:#59160c;fill-opacity:1;stroke-width:0.992947"
     d="m 721.05665,461.34943 2.25559,7.7836 3.38339,10.0075 c 0,0 10.15017,20.01498 -6.76677,16.67916 -16.91694,-3.33585 -14.66135,-11.11949 -14.66135,-11.11949 0,0 -5.639,-3.33583 -4.51119,-4.44778 1.12781,-1.11194 1.1278,-17.79108 1.1278,-17.79108 z"
     fill="#59400c"
     id="path988" />
  <path
     style="fill:#97cddc;fill-opacity:1;stroke-width:0.992947"
     d="m 660.15567,142.22174 13.79362,-20.01497 25.67928,13.3433 3.38339,115.64211 c 0,0 -14.66135,-8.89555 -37.21727,2.22388 -22.55592,11.11943 -37.21727,3.33583 -37.21727,3.33583 l 13.53355,-50.03744 -5.639,-66.7166 8.06544,-7.21756 z"
     fill="#a8d7f0"
     id="path990" />
  <path
     style="stroke-width:0.992947"
     d="m 644.54012,130.67551 -4.68478,3.76263 c 0,0 -29.3227,14.45525 -30.45049,24.46275 l 20.30033,54.48521 c 0,0 5.639,12.23136 1.12779,16.67914 -4.51121,4.44779 -9.02237,15.56721 -7.89457,21.12693 1.1278,5.55971 -6.76678,28.91051 2.25559,28.91051 9.02237,0 30.45049,-53.37326 29.3227,-74.5002 -1.12779,-21.12693 -1.9084,-76.46571 -9.97657,-74.92697 z"
     fill="#548aa7"
     id="path992" />
  <path
     style="stroke-width:0.992947"
     d="m 619.55501,152.22923 -6.95141,0.73312 c 0,0 -6.58214,4.8266 -6.58214,15.94603 0,11.11943 -1.1278,44.47773 -1.1278,44.47773 0,0 -2.25559,16.67914 4.51119,28.91052 6.76678,12.23136 7.89457,15.5672 7.89457,15.5672 l 11.278,-13.34333 v -27.79858 l 4.51118,-17.79107 z"
     fill="#548aa7"
     id="path994" />
  <path
     style="stroke-width:0.992947"
     d="m 670.55845,117.63196 11.02534,4.57479 c 0,0 38.34507,10.00747 43.98405,26.68662 l -15.78915,38.91804 c 0,0 11.278,71.16437 7.89457,71.16437 h -3.38338 c 0,0 9.02236,6.67165 3.38338,8.89554 -5.63898,2.22389 -19.17253,20.01497 -22.55592,12.23137 -3.38339,-7.78359 -23.68371,-100.07488 -21.42812,-120.0899 2.25559,-20.015 -5.13374,-40.28398 -3.13077,-42.38083 z"
     fill="#548aa7"
     id="path996" />
  <path
     style="fill:#724509;fill-opacity:1;stroke-width:0.992947"
     d="m 655.08059,73.837225 v -2.22387 h -5.639 c 0,0 -9.02237,-5.55975 -16.91694,1.11193 -7.89457,6.67167 -11.278,10.0075 -11.278,10.0075 l -3.38339,4.44777 3.38339,1.11195 -3.38339,3.33583 h 3.38339 l -2.2556,3.335819 6.32173,8.339566 c 0,0 -0.68275,-8.339566 6.084,-8.339566 6.76675,0 14.66135,-8.895539 14.66135,-8.895539 l 16.91694,12.231359 c 0,0 -1.1278,-6.640219 2.81949,-6.655939 9e-5,0 1.69178,-16.69485 -10.71397,-17.80681 z"
     fill="#754600"
     id="path998" />
  <path
     style="fill:#fbc1be;fill-opacity:1;stroke-width:0.992947"
     d="m 733.46241,252.30411 -2.25559,23.35081 c 0,0 0,34.47024 -12.40576,31.13441 -12.40576,-3.33584 -2.25559,-32.24635 -2.25559,-32.24635 l 1.71369,-20.91112 z"
     fill="#fbbebe"
     id="path1000" />
  <path
     style="stroke-width:0.992947"
     d="m 708.6509,143.33367 c 0,0 14.66134,-5.55973 19.17253,11.11948 4.51119,16.6792 10.15016,50.03745 10.15016,50.03745 a 50.75106,50.037681 0 0 1 0,36.69412 l -3.38339,16.67915 -19.17253,-2.2239 -4.51118,-37.80605 -4.5112,-47.81363 z"
     fill="#548aa7"
     id="path1002" />
</svg>
